<?xml version="1.0" standalone="no"?>
<!DOCTYPE svg PUBLIC "-//W3C//DTD SVG 20010904//EN"
 "http://www.w3.org/TR/2001/REC-SVG-20010904/DTD/svg10.dtd">
<svg version="1.0" xmlns="http://www.w3.org/2000/svg"
 width="558.000000pt" height="558.000000pt" viewBox="0 0 558.000000 558.000000"
 preserveAspectRatio="xMidYMid meet">

<g transform="translate(0.000000,558.000000) scale(0.100000,-0.100000)"
fill="#334CDB" stroke="none">
<path d="M3185 5010 c-1147 -91 -2224 -507 -2795 -1080 -187 -187 -310 -384
-361 -575 -31 -117 -31 -292 -1 -400 42 -145 139 -297 260 -406 485 -435 1512
-597 2615 -413 1322 220 2405 857 2620 1541 118 374 -21 721 -388 968 -85 57
-279 153 -395 196 -181 66 -472 128 -745 159 -121 14 -673 21 -810 10z m735
-245 c738 -68 1231 -305 1371 -660 31 -80 34 -260 5 -345 -55 -163 -134 -280
-300 -446 -203 -202 -407 -344 -716 -498 -943 -468 -2224 -640 -3130 -420
-566 138 -899 414 -900 744 0 214 97 407 315 625 483 484 1381 853 2385 980
293 37 694 45 970 20z"/>
<path d="M5186 2780 c-15 -5 -37 -17 -48 -27 -46 -41 -48 -56 -48 -360 0 -356
-7 -336 136 -408 l99 -50 3 -232 c2 -195 0 -233 -12 -233 -22 0 -26 33 -26
253 l0 207 -100 0 -100 0 0 -260 c0 -281 1 -290 55 -340 25 -24 34 -25 158
-28 148 -3 178 6 217 70 19 31 20 47 18 335 l-3 303 -27 27 c-16 16 -67 48
-115 73 l-88 45 0 229 c0 175 3 230 13 234 9 3 12 -47 12 -227 l0 -231 105 0
105 0 0 264 c0 257 -1 264 -23 297 -37 55 -76 69 -197 68 -58 0 -118 -5 -134
-9z"/>
<path d="M62 1388 l3 -743 102 -3 103 -3 2 338 c3 293 5 338 18 338 13 0 15
-45 18 -337 l2 -338 106 0 105 0 -3 333 c-3 358 0 332 -52 402 -6 8 1 25 20
50 l29 38 3 276 c3 309 0 323 -67 368 -32 22 -44 23 -213 23 l-178 0 2 -742z
m248 320 c0 -232 -1 -249 -17 -246 -16 3 -18 23 -21 233 -3 248 0 278 23 269
13 -5 15 -44 15 -256z"/>
<path d="M2550 1116 l0 -746 171 0 c155 0 175 2 209 21 71 40 75 54 78 324 4
281 1 311 -38 360 l-30 37 33 45 32 45 0 278 c0 266 -1 280 -21 306 -49 66
-59 69 -255 72 l-179 3 0 -745z m240 319 c0 -220 -2 -255 -15 -255 -13 0 -15
34 -15 248 0 137 3 252 7 255 20 20 23 -15 23 -248z m0 -645 c0 -216 -2 -250
-15 -250 -13 0 -15 34 -15 250 0 216 2 250 15 250 13 0 15 -34 15 -250z"/>
</g>
</svg>
